<?xml version="1.0" encoding="utf-8"?>
<!-- Generator: Adobe Illustrator 18.0.0, SVG Export Plug-In . SVG Version: 6.00 Build 0)  -->
<!DOCTYPE svg PUBLIC "-//W3C//DTD SVG 1.1//EN" "http://www.w3.org/Graphics/SVG/1.1/DTD/svg11.dtd">
<svg version="1.1" id="Layer_1" xmlns="http://www.w3.org/2000/svg" xmlns:xlink="http://www.w3.org/1999/xlink" x="0px" y="0px"
	 viewBox="383.6 187.3 250 250" enable-background="new 383.6 187.3 250 250" xml:space="preserve">
<g id="Search_Icon_1_" enable-background="new    ">
	<g id="Search_Icon">
		<g>
			<path d="M611,400.2l-31.6-31.6c28.2-35.8,25.6-87-6.8-120.3c-35-35-93-35-128,0s-35,93,0,128c32.4,32.4,84.5,35,120.3,6.8
				l31.6,31.6c4.3,4.3,11.1,4.3,15.4,0C615.3,411.3,615.3,404.5,611,400.2z M561.5,365.2c-29.9,29.9-77.7,29.9-106.7,0
				c-29.9-29.9-29.9-77.7,0-106.7c29.9-29.9,77.7-29.9,106.7,0C591.4,288.4,591.4,336.2,561.5,365.2z"/>
		</g>
	</g>
</g>
</svg>
