<?xml version="1.0" encoding="utf-8"?>
<!-- Generator: Adobe Illustrator 18.0.0, SVG Export Plug-In . SVG Version: 6.00 Build 0)  -->
<!DOCTYPE svg PUBLIC "-//W3C//DTD SVG 1.1//EN" "http://www.w3.org/Graphics/SVG/1.1/DTD/svg11.dtd">
<svg version="1.1" id="Layer_1" xmlns="http://www.w3.org/2000/svg" xmlns:xlink="http://www.w3.org/1999/xlink" x="0px" y="0px"
	 viewBox="112.4 -46.4 800 796.5" enable-background="new 112.4 -46.4 800 796.5" xml:space="preserve">
<g id="Search_Icon_1_" enable-background="new    ">
	<g id="Search_Icon">
		<g>
			<path stroke="#000000" stroke-width="55" stroke-miterlimit="10" d="M827.2,623.3l-97.1-97.1c86.6-110,78.6-267.3-20.9-369.6
				C601.7,49.2,423.5,49.2,316,156.7s-107.5,285.7,0,393.2c99.5,99.5,259.6,107.5,369.6,20.9l97.1,97.1c13.2,13.2,34.1,13.2,47.3,0
				C840.4,657.4,840.4,636.5,827.2,623.3z M675.1,515.8c-91.9,91.9-238.7,91.9-327.8,0c-91.9-91.9-91.9-238.7,0-327.8
				c91.9-91.9,238.7-91.9,327.8,0C767,279.9,767,426.7,675.1,515.8z"/>
		</g>
	</g>
</g>
</svg>
